<svg width="500" height="500" viewBox="0 0 500 500" fill="none" xmlns="http://www.w3.org/2000/svg">
<g filter="url(#filter0_d_125_42)">
<path d="M101.909 396.086C101.536 394.79 101.012 393.645 100.338 392.65C99.663 391.638 98.8374 390.786 97.8608 390.093C96.902 389.383 95.8011 388.842 94.5582 388.469C93.3331 388.096 91.9748 387.909 90.4833 387.909C87.6957 387.909 85.2454 388.602 83.1325 389.987C81.0373 391.372 79.4038 393.387 78.2319 396.033C77.06 398.661 76.4741 401.874 76.4741 405.674C76.4741 409.474 77.0511 412.705 78.2053 415.369C79.3594 418.032 80.9929 420.065 83.1058 421.468C85.2188 422.853 87.7134 423.545 90.5898 423.545C93.1999 423.545 95.4283 423.083 97.2749 422.16C99.1392 421.219 100.56 419.896 101.536 418.192C102.531 416.487 103.028 414.472 103.028 412.146L105.371 412.492H91.309V403.81H114.134V410.681C114.134 415.475 113.122 419.594 111.098 423.039C109.074 426.466 106.286 429.112 102.735 430.976C99.1836 432.822 95.1175 433.746 90.5366 433.746C85.4229 433.746 80.9308 432.618 77.06 430.363C73.1893 428.091 70.1708 424.868 68.0046 420.695C65.8562 416.505 64.782 411.533 64.782 405.781C64.782 401.359 65.4212 397.418 66.6996 393.955C67.9957 390.475 69.8068 387.528 72.1328 385.113C74.4588 382.698 77.1665 380.86 80.256 379.6C83.3455 378.339 86.6925 377.709 90.2969 377.709C93.3864 377.709 96.2628 378.162 98.9261 379.067C101.589 379.955 103.951 381.216 106.011 382.849C108.088 384.483 109.784 386.427 111.098 388.682C112.412 390.919 113.255 393.387 113.628 396.086H101.909ZM125.147 433V392.091H136.493V433H125.147ZM130.846 386.817C129.16 386.817 127.713 386.258 126.505 385.14C125.316 384.003 124.721 382.645 124.721 381.065C124.721 379.502 125.316 378.162 126.505 377.043C127.713 375.907 129.16 375.338 130.846 375.338C132.533 375.338 133.971 375.907 135.161 377.043C136.368 378.162 136.972 379.502 136.972 381.065C136.972 382.645 136.368 384.003 135.161 385.14C133.971 386.258 132.533 386.817 130.846 386.817ZM167.341 392.091V400.614H142.705V392.091H167.341ZM148.298 382.29H159.644V420.429C159.644 421.477 159.804 422.293 160.123 422.879C160.443 423.447 160.887 423.847 161.455 424.078C162.041 424.309 162.716 424.424 163.479 424.424C164.012 424.424 164.544 424.38 165.077 424.291C165.61 424.184 166.018 424.104 166.302 424.051L168.087 432.494C167.519 432.672 166.72 432.876 165.69 433.107C164.66 433.355 163.408 433.506 161.934 433.559C159.2 433.666 156.803 433.302 154.743 432.467C152.701 431.633 151.112 430.337 149.976 428.579C148.84 426.821 148.28 424.602 148.298 421.92V382.29Z" fill="#8E8E8E"/>
<path d="M192.303 433V378.455H213.823C217.96 378.455 221.485 379.245 224.397 380.825C227.309 382.387 229.528 384.562 231.055 387.35C232.6 390.12 233.372 393.316 233.372 396.938C233.372 400.56 232.591 403.756 231.028 406.526C229.466 409.296 227.202 411.453 224.237 412.998C221.289 414.543 217.721 415.315 213.53 415.315H199.814V406.074H211.666C213.885 406.074 215.714 405.692 217.152 404.928C218.608 404.147 219.691 403.073 220.402 401.706C221.13 400.321 221.494 398.732 221.494 396.938C221.494 395.127 221.13 393.547 220.402 392.197C219.691 390.83 218.608 389.774 217.152 389.028C215.696 388.265 213.85 387.883 211.613 387.883H203.836V433H192.303ZM258.474 433.799C254.337 433.799 250.759 432.92 247.741 431.162C244.74 429.387 242.423 426.919 240.79 423.758C239.156 420.58 238.339 416.896 238.339 412.705C238.339 408.479 239.156 404.786 240.79 401.626C242.423 398.447 244.74 395.979 247.741 394.222C250.759 392.446 254.337 391.558 258.474 391.558C262.611 391.558 266.18 392.446 269.181 394.222C272.199 395.979 274.525 398.447 276.159 401.626C277.792 404.786 278.609 408.479 278.609 412.705C278.609 416.896 277.792 420.58 276.159 423.758C274.525 426.919 272.199 429.387 269.181 431.162C266.18 432.92 262.611 433.799 258.474 433.799ZM258.528 425.01C260.41 425.01 261.981 424.477 263.242 423.412C264.502 422.329 265.452 420.855 266.091 418.991C266.748 417.126 267.077 415.005 267.077 412.625C267.077 410.246 266.748 408.124 266.091 406.26C265.452 404.396 264.502 402.922 263.242 401.839C261.981 400.756 260.41 400.214 258.528 400.214C256.628 400.214 255.03 400.756 253.733 401.839C252.455 402.922 251.487 404.396 250.83 406.26C250.191 408.124 249.872 410.246 249.872 412.625C249.872 415.005 250.191 417.126 250.83 418.991C251.487 420.855 252.455 422.329 253.733 423.412C255.03 424.477 256.628 425.01 258.528 425.01ZM297.333 378.455V433H285.987V378.455H297.333ZM306.421 433V392.091H317.767V433H306.421ZM312.121 386.817C310.434 386.817 308.987 386.258 307.78 385.14C306.59 384.003 305.995 382.645 305.995 381.065C305.995 379.502 306.59 378.162 307.78 377.043C308.987 375.907 310.434 375.338 312.121 375.338C313.808 375.338 315.246 375.907 316.435 377.043C317.643 378.162 318.247 379.502 318.247 381.065C318.247 382.645 317.643 384.003 316.435 385.14C315.246 386.258 313.808 386.817 312.121 386.817ZM345.339 433.799C341.149 433.799 337.545 432.911 334.526 431.136C331.526 429.342 329.217 426.857 327.602 423.678C326.004 420.5 325.205 416.842 325.205 412.705C325.205 408.515 326.012 404.839 327.628 401.679C329.262 398.501 331.579 396.024 334.58 394.248C337.58 392.455 341.149 391.558 345.286 391.558C348.855 391.558 351.98 392.206 354.661 393.502C357.342 394.799 359.464 396.619 361.027 398.962C362.589 401.306 363.45 404.058 363.61 407.219H352.903C352.602 405.177 351.803 403.534 350.506 402.292C349.228 401.031 347.55 400.401 345.473 400.401C343.715 400.401 342.179 400.88 340.865 401.839C339.569 402.78 338.557 404.156 337.829 405.967C337.101 407.778 336.737 409.971 336.737 412.545C336.737 415.156 337.092 417.375 337.802 419.204C338.53 421.033 339.551 422.426 340.865 423.385C342.179 424.344 343.715 424.824 345.473 424.824C346.769 424.824 347.932 424.557 348.962 424.025C350.009 423.492 350.87 422.719 351.545 421.707C352.238 420.678 352.69 419.444 352.903 418.005H363.61C363.433 421.13 362.58 423.882 361.053 426.262C359.544 428.623 357.458 430.47 354.794 431.801C352.131 433.133 348.979 433.799 345.339 433.799ZM377.879 448.341C376.441 448.341 375.091 448.225 373.831 447.995C372.588 447.782 371.558 447.506 370.741 447.169L373.298 438.7C374.63 439.108 375.828 439.33 376.894 439.365C377.977 439.401 378.909 439.152 379.69 438.62C380.489 438.087 381.137 437.181 381.634 435.903L382.3 434.172L367.625 392.091H379.557L388.026 422.134H388.453L397.002 392.091H409.014L393.113 437.421C392.35 439.623 391.311 441.54 389.997 443.174C388.701 444.825 387.059 446.095 385.07 446.983C383.081 447.888 380.684 448.341 377.879 448.341Z" fill="#5D5D5D"/>
</g>
<path d="M249.789 359.608C249.789 359.608 379.649 299.679 379.649 209.786V104.911L249.789 59.9644L119.93 104.911V209.786C119.93 299.679 249.789 359.608 249.789 359.608Z" fill="#FF5047"/>
<path d="M209.225 132.589C209.105 127.619 204.98 123.686 200.011 123.802C195.041 123.919 191.11 128.042 191.23 133.011L200.228 132.8L209.225 132.589ZM200.228 132.8L191.23 133.011L193.757 237.669L202.755 237.457L211.752 237.246L209.225 132.589L200.228 132.8ZM332.3 155.878L323.303 156.089C323.531 165.531 316.016 173.437 306.427 173.662L306.644 182.66L306.861 191.657C326.309 191.201 341.768 175.126 341.298 155.667L332.3 155.878ZM306.644 182.66L306.427 173.662C296.837 173.888 288.949 166.343 288.722 156.901L279.724 157.113L270.726 157.324C271.196 176.783 287.413 192.114 306.861 191.657L306.644 182.66ZM279.724 157.113L288.722 156.901C288.494 147.46 296.008 139.553 305.598 139.328L305.38 130.331L305.163 121.334C285.715 121.79 270.257 137.865 270.726 157.324L279.724 157.113ZM305.38 130.331L305.598 139.328C315.187 139.103 323.075 146.648 323.303 156.089L332.3 155.878L341.298 155.667C340.828 136.208 324.611 120.877 305.163 121.334L305.38 130.331ZM229.675 263.005L220.677 263.216C220.905 272.657 213.39 280.564 203.801 280.789L204.018 289.786L204.235 298.784C223.683 298.327 239.142 282.253 238.672 262.793L229.675 263.005ZM204.018 289.786L203.801 280.789C194.212 281.014 186.324 273.469 186.096 264.028L177.098 264.239L168.101 264.45C168.571 283.909 184.788 299.24 204.235 298.784L204.018 289.786ZM177.098 264.239L186.096 264.028C185.868 254.587 193.383 246.68 202.972 246.455L202.755 237.457L202.537 228.46C183.09 228.917 167.631 244.991 168.101 264.45L177.098 264.239ZM202.755 237.457L202.972 246.455C212.561 246.23 220.449 253.775 220.677 263.216L229.675 263.005L238.672 262.793C238.202 243.334 221.985 228.003 202.537 228.46L202.755 237.457ZM306.644 182.66L297.646 182.871C298.091 201.289 291.167 219.133 278.384 232.477L284.885 238.705L291.386 244.933C307.472 228.142 316.202 205.666 315.641 182.449L306.644 182.66ZM284.885 238.705L278.384 232.477C265.599 245.822 248.001 253.572 229.457 254.007L229.675 263.005L229.892 272.002C253.181 271.455 275.302 261.723 291.386 244.933L284.885 238.705Z" fill="#F3F3F3"/>
<defs>
<filter id="filter0_d_125_42" x="60.782" y="375.338" width="352.232" height="81.0024" filterUnits="userSpaceOnUse" color-interpolation-filters="sRGB">
<feFlood flood-opacity="0" result="BackgroundImageFix"/>
<feColorMatrix in="SourceAlpha" type="matrix" values="0 0 0 0 0 0 0 0 0 0 0 0 0 0 0 0 0 0 127 0" result="hardAlpha"/>
<feOffset dy="4"/>
<feGaussianBlur stdDeviation="2"/>
<feComposite in2="hardAlpha" operator="out"/>
<feColorMatrix type="matrix" values="0 0 0 0 0.666519 0 0 0 0 0.666519 0 0 0 0 0.666519 0 0 0 0.25 0"/>
<feBlend mode="normal" in2="BackgroundImageFix" result="effect1_dropShadow_125_42"/>
<feBlend mode="normal" in="SourceGraphic" in2="effect1_dropShadow_125_42" result="shape"/>
</filter>
</defs>
</svg>
